<svg xmlns="http://www.w3.org/2000/svg" viewBox="0 0 1400 940" role="img" aria-labelledby="title desc" font-family="ui-sans-serif, -apple-system, BlinkMacSystemFont, 'Segoe UI', Inter, system-ui, sans-serif">
  <title id="title">Hyperflow — 9-layer multi-agent orchestration</title>
  <desc id="desc">A complete map of Hyperflow: project analysis, autonomy, model routing, orchestrator dispatching parallel workers, brainstorming for design, quality gates, persistent session memory, task templates, automated git workflow, and security containment — across Claude Code, Cursor, OpenCode, Codex, and Antigravity.</desc>

  <defs>
    <linearGradient id="bg" x1="0" y1="0" x2="0" y2="1">
      <stop offset="0%" stop-color="#0B0F1A"/>
      <stop offset="100%" stop-color="#0E1422"/>
    </linearGradient>
    <linearGradient id="thinking" x1="0" y1="0" x2="1" y2="1">
      <stop offset="0%" stop-color="#A78BFA"/>
      <stop offset="100%" stop-color="#7C3AED"/>
    </linearGradient>
    <linearGradient id="worker" x1="0" y1="0" x2="1" y2="1">
      <stop offset="0%" stop-color="#5EEAD4"/>
      <stop offset="100%" stop-color="#14B8A6"/>
    </linearGradient>
    <linearGradient id="user" x1="0" y1="0" x2="1" y2="1">
      <stop offset="0%" stop-color="#F8FAFC"/>
      <stop offset="100%" stop-color="#CBD5E1"/>
    </linearGradient>
    <linearGradient id="memory" x1="0" y1="0" x2="1" y2="1">
      <stop offset="0%" stop-color="#FBBF24"/>
      <stop offset="100%" stop-color="#F59E0B"/>
    </linearGradient>
    <linearGradient id="security" x1="0" y1="0" x2="1" y2="1">
      <stop offset="0%" stop-color="#F87171"/>
      <stop offset="100%" stop-color="#EF4444"/>
    </linearGradient>
    <linearGradient id="git" x1="0" y1="0" x2="1" y2="1">
      <stop offset="0%" stop-color="#60A5FA"/>
      <stop offset="100%" stop-color="#3B82F6"/>
    </linearGradient>

    <marker id="arrow" viewBox="0 0 12 12" refX="10" refY="6" markerWidth="6" markerHeight="6" orient="auto-start-reverse">
      <path d="M0,0 L12,6 L0,12 Z" fill="#64748B"/>
    </marker>
    <marker id="arrow-thinking" viewBox="0 0 12 12" refX="10" refY="6" markerWidth="6" markerHeight="6" orient="auto-start-reverse">
      <path d="M0,0 L12,6 L0,12 Z" fill="#A78BFA"/>
    </marker>
    <marker id="arrow-worker" viewBox="0 0 12 12" refX="10" refY="6" markerWidth="6" markerHeight="6" orient="auto-start-reverse">
      <path d="M0,0 L12,6 L0,12 Z" fill="#5EEAD4"/>
    </marker>
    <marker id="arrow-memory" viewBox="0 0 12 12" refX="10" refY="6" markerWidth="6" markerHeight="6" orient="auto-start-reverse">
      <path d="M0,0 L12,6 L0,12 Z" fill="#FBBF24"/>
    </marker>
  </defs>

  <rect width="1400" height="940" fill="url(#bg)"/>

  <!-- subtle grid -->
  <g opacity="0.05" stroke="#94A3B8" stroke-width="1">
    <path d="M0 80 H1400 M0 160 H1400 M0 240 H1400 M0 320 H1400 M0 400 H1400 M0 480 H1400 M0 560 H1400 M0 640 H1400 M0 720 H1400 M0 800 H1400 M0 880 H1400"/>
    <path d="M120 0 V940 M240 0 V940 M360 0 V940 M480 0 V940 M600 0 V940 M720 0 V940 M840 0 V940 M960 0 V940 M1080 0 V940 M1200 0 V940 M1320 0 V940"/>
  </g>

  <!-- ============ HEADER ============ -->
  <g>
    <text x="60" y="60" fill="#F8FAFC" font-size="36" font-weight="700" letter-spacing="-0.5">Hyperflow</text>
    <text x="60" y="92" fill="#94A3B8" font-size="15" font-weight="500">9 layers · Thinking model orchestrates · Workers execute in parallel · Every output reviewed · Memory persists</text>
  </g>

  <!-- Legend -->
  <g transform="translate(960,52)" font-size="13" font-weight="500">
    <circle cx="0" cy="0" r="6" fill="url(#thinking)"/>
    <text x="14" y="4" fill="#E2E8F0">Thinking</text>
    <circle cx="92" cy="0" r="6" fill="url(#worker)"/>
    <text x="106" y="4" fill="#E2E8F0">Worker</text>
    <circle cx="180" cy="0" r="6" fill="url(#memory)"/>
    <text x="194" y="4" fill="#E2E8F0">Memory</text>
    <circle cx="272" cy="0" r="6" fill="url(#user)"/>
    <text x="286" y="4" fill="#E2E8F0">You</text>
    <circle cx="328" cy="0" r="6" fill="url(#security)"/>
    <text x="342" y="4" fill="#E2E8F0">Security</text>
    <circle cx="416" cy="0" r="6" fill="url(#git)"/>
    <text x="430" y="4" fill="#E2E8F0">Git</text>
  </g>

  <!-- ============ LAYER CHIPS STRIP ============ -->
  <g transform="translate(60,118)" font-size="11" font-weight="600" letter-spacing="0.4">
    <g><rect width="148" height="28" rx="14" fill="rgba(148,163,184,0.10)" stroke="#334155" stroke-width="1"/><text x="74" y="18" text-anchor="middle" fill="#CBD5E1">L0 · Project Analysis</text></g>
    <g transform="translate(156,0)"><rect width="100" height="28" rx="14" fill="rgba(148,163,184,0.10)" stroke="#334155" stroke-width="1"/><text x="50" y="18" text-anchor="middle" fill="#CBD5E1">L1 · Autonomy</text></g>
    <g transform="translate(264,0)"><rect width="132" height="28" rx="14" fill="rgba(167,139,250,0.10)" stroke="#7C3AED" stroke-width="1"/><text x="66" y="18" text-anchor="middle" fill="#DDD6FE">L2 · Model Routing</text></g>
    <g transform="translate(404,0)"><rect width="120" height="28" rx="14" fill="rgba(167,139,250,0.10)" stroke="#7C3AED" stroke-width="1"/><text x="60" y="18" text-anchor="middle" fill="#DDD6FE">L3 · Orchestrate</text></g>
    <g transform="translate(532,0)"><rect width="120" height="28" rx="14" fill="rgba(167,139,250,0.10)" stroke="#7C3AED" stroke-width="1"/><text x="60" y="18" text-anchor="middle" fill="#DDD6FE">L4 · Brainstorm</text></g>
    <g transform="translate(660,0)"><rect width="124" height="28" rx="14" fill="rgba(94,234,212,0.10)" stroke="#14B8A6" stroke-width="1"/><text x="62" y="18" text-anchor="middle" fill="#A7F3D0">L5 · Quality Gates</text></g>
    <g transform="translate(792,0)"><rect width="148" height="28" rx="14" fill="rgba(251,191,36,0.10)" stroke="#F59E0B" stroke-width="1"/><text x="74" y="18" text-anchor="middle" fill="#FDE68A">L6 · Session Memory</text></g>
    <g transform="translate(948,0)"><rect width="132" height="28" rx="14" fill="rgba(148,163,184,0.10)" stroke="#334155" stroke-width="1"/><text x="66" y="18" text-anchor="middle" fill="#CBD5E1">L7 · Task Templates</text></g>
    <g transform="translate(1088,0)"><rect width="124" height="28" rx="14" fill="rgba(96,165,250,0.10)" stroke="#3B82F6" stroke-width="1"/><text x="62" y="18" text-anchor="middle" fill="#BFDBFE">L8 · Git Workflow</text></g>
    <g transform="translate(1220,0)"><rect width="100" height="28" rx="14" fill="rgba(248,113,113,0.10)" stroke="#EF4444" stroke-width="1"/><text x="50" y="18" text-anchor="middle" fill="#FECACA">L9 · Security</text></g>
  </g>

  <!-- ============ STAGE LABELS ============ -->
  <g font-size="11" font-weight="700" fill="#475569" letter-spacing="1.6">
    <text x="100"  y="200" text-anchor="middle">INPUT</text>
    <text x="270"  y="200" text-anchor="middle">BRAINSTORM</text>
    <text x="450"  y="200" text-anchor="middle">DECOMPOSE</text>
    <text x="700"  y="200" text-anchor="middle">PARALLEL EXECUTION</text>
    <text x="950"  y="200" text-anchor="middle">REVIEW + GATES</text>
    <text x="1180" y="200" text-anchor="middle">INTEGRATE</text>
  </g>

  <!-- ============ MAIN PIPELINE ============ -->

  <!-- USER -->
  <g transform="translate(50,220)">
    <rect width="100" height="180" rx="14" fill="#0F172A" stroke="#334155" stroke-width="1"/>
    <circle cx="50" cy="42" r="18" fill="url(#user)"/>
    <text x="50" y="84" text-anchor="middle" fill="#F1F5F9" font-size="13" font-weight="700">You</text>
    <text x="50" y="116" text-anchor="middle" fill="#94A3B8" font-size="10">"I need a</text>
    <text x="50" y="130" text-anchor="middle" fill="#94A3B8" font-size="10">notification</text>
    <text x="50" y="144" text-anchor="middle" fill="#94A3B8" font-size="10">system"</text>
    <text x="50" y="166" text-anchor="middle" fill="#5EEAD4" font-size="9" font-weight="700" letter-spacing="0.6">/hyperflow</text>
  </g>

  <!-- arrow user -> brainstorm -->
  <path d="M152 310 H212" stroke="#64748B" stroke-width="2" fill="none" marker-end="url(#arrow)"/>

  <!-- BRAINSTORM (L4) -->
  <g transform="translate(214,220)">
    <rect width="120" height="180" rx="14" fill="rgba(167,139,250,0.08)" stroke="url(#thinking)" stroke-width="1.5"/>
    <g transform="translate(60,40)">
      <circle r="20" fill="url(#thinking)" opacity="0.18"/>
      <circle r="13" fill="url(#thinking)"/>
      <text y="4" text-anchor="middle" fill="#0B0F1A" font-size="11" font-weight="800">B</text>
    </g>
    <text x="60" y="86" text-anchor="middle" fill="#E2E8F0" font-size="12" font-weight="700">Brainstormer</text>
    <text x="60" y="102" text-anchor="middle" fill="#A78BFA" font-size="10" font-weight="500">Thinking model</text>
    <line x1="14" y1="118" x2="106" y2="118" stroke="#1E293B" stroke-width="1"/>
    <text x="60" y="134" text-anchor="middle" fill="#94A3B8" font-size="10">Explore intent</text>
    <text x="60" y="148" text-anchor="middle" fill="#94A3B8" font-size="10">Propose options</text>
    <text x="60" y="162" text-anchor="middle" fill="#94A3B8" font-size="10">Get approval</text>
  </g>

  <!-- design loop arrow back to user -->
  <g>
    <path d="M274 220 Q274 196, 200 196 Q126 196, 126 220" stroke="#A78BFA" stroke-width="1.5" stroke-dasharray="3 3" fill="none" opacity="0.7" marker-end="url(#arrow-thinking)"/>
    <text x="200" y="186" text-anchor="middle" fill="#A78BFA" font-size="9" font-weight="600" letter-spacing="0.4" opacity="0.85">clarify · approve</text>
  </g>

  <!-- arrow brainstorm -> orchestrator -->
  <path d="M336 310 H394" stroke="#A78BFA" stroke-width="2" fill="none" marker-end="url(#arrow-thinking)"/>

  <!-- ORCHESTRATOR (L3) -->
  <g transform="translate(396,220)">
    <rect width="130" height="180" rx="14" fill="rgba(167,139,250,0.08)" stroke="url(#thinking)" stroke-width="1.5"/>
    <g transform="translate(65,40)">
      <circle r="22" fill="url(#thinking)" opacity="0.18"/>
      <circle r="14" fill="url(#thinking)"/>
      <text y="4" text-anchor="middle" fill="#0B0F1A" font-size="11" font-weight="800">O</text>
    </g>
    <text x="65" y="88" text-anchor="middle" fill="#E2E8F0" font-size="13" font-weight="700">Orchestrator</text>
    <text x="65" y="106" text-anchor="middle" fill="#A78BFA" font-size="10" font-weight="500">Opus 4.7</text>
    <line x1="20" y1="122" x2="110" y2="122" stroke="#1E293B" stroke-width="1"/>
    <text x="65" y="138" text-anchor="middle" fill="#94A3B8" font-size="10">Pick template (L7)</text>
    <text x="65" y="152" text-anchor="middle" fill="#94A3B8" font-size="10">Decompose</text>
    <text x="65" y="166" text-anchor="middle" fill="#94A3B8" font-size="10">Dispatch ×3</text>
  </g>

  <!-- arrows orchestrator -> workers -->
  <g stroke="url(#thinking)" stroke-width="2" fill="none">
    <path d="M528 252 C580 252, 590 246, 638 246" marker-end="url(#arrow-thinking)"/>
    <path d="M528 310 H638" marker-end="url(#arrow-thinking)"/>
    <path d="M528 368 C580 368, 590 374, 638 374" marker-end="url(#arrow-thinking)"/>
  </g>

  <!-- WORKERS -->
  <g transform="translate(640,218)">
    <rect width="200" height="56" rx="12" fill="rgba(94,234,212,0.08)" stroke="url(#worker)" stroke-width="1.5"/>
    <circle cx="28" cy="28" r="14" fill="url(#worker)"/>
    <text x="28" y="32" text-anchor="middle" fill="#0B0F1A" font-size="11" font-weight="800">W1</text>
    <text x="56" y="24" fill="#E2E8F0" font-size="12" font-weight="700">WebSocket service</text>
    <text x="56" y="42" fill="#94A3B8" font-size="10">Sonnet 4.6 · in flight</text>
  </g>
  <g transform="translate(640,282)">
    <rect width="200" height="56" rx="12" fill="rgba(94,234,212,0.08)" stroke="url(#worker)" stroke-width="1.5"/>
    <circle cx="28" cy="28" r="14" fill="url(#worker)"/>
    <text x="28" y="32" text-anchor="middle" fill="#0B0F1A" font-size="11" font-weight="800">W2</text>
    <text x="56" y="24" fill="#E2E8F0" font-size="12" font-weight="700">Toast component</text>
    <text x="56" y="42" fill="#94A3B8" font-size="10">Sonnet 4.6 · in flight</text>
  </g>
  <g transform="translate(640,346)">
    <rect width="200" height="56" rx="12" fill="rgba(94,234,212,0.08)" stroke="url(#worker)" stroke-width="1.5"/>
    <circle cx="28" cy="28" r="14" fill="url(#worker)"/>
    <text x="28" y="32" text-anchor="middle" fill="#0B0F1A" font-size="11" font-weight="800">W3</text>
    <text x="56" y="24" fill="#E2E8F0" font-size="12" font-weight="700">Notification center</text>
    <text x="56" y="42" fill="#94A3B8" font-size="10">Sonnet 4.6 · in flight</text>
  </g>

  <!-- parallel braces -->
  <g stroke="#475569" stroke-width="1.5" fill="none">
    <path d="M848 240 C858 240, 858 310, 868 310"/>
    <path d="M848 380 C858 380, 858 310, 868 310"/>
  </g>
  <text x="888" y="304" fill="#64748B" font-size="10" font-weight="700" letter-spacing="1.2">PARALLEL</text>
  <text x="888" y="320" fill="#64748B" font-size="10" font-weight="700" letter-spacing="1.2">~3× FASTER</text>

  <!-- arrows workers -> reviewer -->
  <g stroke="url(#worker)" stroke-width="2" fill="none">
    <path d="M840 246 C900 246, 920 246, 948 286" marker-end="url(#arrow-worker)"/>
    <path d="M840 310 H948" marker-end="url(#arrow-worker)"/>
    <path d="M840 374 C900 374, 920 374, 948 326" marker-end="url(#arrow-worker)"/>
  </g>

  <!-- REVIEWER + QUALITY GATES (L3 + L5) -->
  <g transform="translate(950,220)">
    <rect width="170" height="180" rx="14" fill="rgba(167,139,250,0.08)" stroke="url(#thinking)" stroke-width="1.5"/>
    <g transform="translate(85,38)">
      <circle r="20" fill="url(#thinking)" opacity="0.18"/>
      <circle r="13" fill="url(#thinking)"/>
      <text y="4" text-anchor="middle" fill="#0B0F1A" font-size="11" font-weight="800">R</text>
    </g>
    <text x="85" y="82" text-anchor="middle" fill="#E2E8F0" font-size="12" font-weight="700">Reviewer</text>
    <text x="85" y="98" text-anchor="middle" fill="#A78BFA" font-size="10" font-weight="500">Opus 4.7 · two-pass</text>
    <line x1="14" y1="112" x2="156" y2="112" stroke="#1E293B" stroke-width="1"/>
    <g transform="translate(14,124)" font-size="10">
      <circle cx="6" cy="-2" r="3" fill="#5EEAD4"/><text x="14" y="2" fill="#CBD5E1">Lint</text>
      <circle cx="56" cy="-2" r="3" fill="#5EEAD4"/><text x="64" y="2" fill="#CBD5E1">Typecheck</text>
      <circle cx="6" cy="14" r="3" fill="#5EEAD4"/><text x="14" y="18" fill="#CBD5E1">Tests (affected)</text>
      <circle cx="6" cy="30" r="3" fill="#F87171"/><text x="14" y="34" fill="#FECACA">Secret scan (sk-*, AKIA*, ghp_*)</text>
      <text x="0" y="52" fill="#94A3B8" font-size="9">↻ Auto-retry × 3 on failure</text>
    </g>
  </g>

  <!-- arrow reviewer -> integration -->
  <path d="M1122 310 H1162" stroke="url(#thinking)" stroke-width="2" fill="none" marker-end="url(#arrow-thinking)"/>

  <!-- INTEGRATION -->
  <g transform="translate(1164,220)">
    <rect width="180" height="180" rx="14" fill="rgba(94,234,212,0.08)" stroke="url(#worker)" stroke-width="1.5"/>
    <g transform="translate(90,40)">
      <circle r="22" fill="url(#worker)" opacity="0.18"/>
      <circle r="14" fill="url(#worker)"/>
      <text y="4" text-anchor="middle" fill="#0B0F1A" font-size="11" font-weight="800">W4</text>
    </g>
    <text x="90" y="88" text-anchor="middle" fill="#E2E8F0" font-size="13" font-weight="700">Integration</text>
    <text x="90" y="106" text-anchor="middle" fill="#5EEAD4" font-size="10" font-weight="500">Sonnet 4.6 + learnings</text>
    <line x1="14" y1="122" x2="166" y2="122" stroke="#1E293B" stroke-width="1"/>
    <text x="90" y="138" text-anchor="middle" fill="#94A3B8" font-size="10">Wires routes · context</text>
    <text x="90" y="152" text-anchor="middle" fill="#94A3B8" font-size="10">Final review pass</text>
    <text x="90" y="170" text-anchor="middle" fill="#5EEAD4" font-size="10" font-weight="700">✓ Done</text>
  </g>

  <!-- ============ MEMORY LAYER (L6) ============ -->

  <!-- Learnings within-session loop -->
  <g>
    <path d="M1035 412 Q1035 462, 730 462 Q425 462, 425 412" stroke="url(#memory)" stroke-width="1.6" stroke-dasharray="4 4" fill="none" opacity="0.85" marker-end="url(#arrow-memory)"/>
    <text x="730" y="456" text-anchor="middle" fill="#FDE68A" font-size="11" font-weight="600" letter-spacing="0.4">↻ Learnings injected into next batch (within session)</text>
  </g>

  <!-- Persistent memory file (cross-session) -->
  <g transform="translate(60,500)">
    <rect width="430" height="160" rx="14" fill="rgba(251,191,36,0.06)" stroke="url(#memory)" stroke-width="1.5"/>
    <g transform="translate(20,22)">
      <rect width="34" height="42" rx="3" fill="none" stroke="url(#memory)" stroke-width="1.5"/>
      <path d="M24 0 V12 H34" fill="none" stroke="url(#memory)" stroke-width="1.5"/>
      <line x1="6" y1="22" x2="28" y2="22" stroke="#FBBF24" stroke-width="1" opacity="0.6"/>
      <line x1="6" y1="28" x2="28" y2="28" stroke="#FBBF24" stroke-width="1" opacity="0.6"/>
      <line x1="6" y1="34" x2="22" y2="34" stroke="#FBBF24" stroke-width="1" opacity="0.6"/>
    </g>
    <text x="68" y="36" fill="#FDE68A" font-size="13" font-weight="700">L6 · Persistent Session Memory</text>
    <text x="68" y="54" fill="#FCD34D" font-size="11" font-family="ui-monospace, SFMono-Regular, Menlo, monospace">~/.claude/hyperflow-memory.md</text>
    <line x1="20" y1="74" x2="410" y2="74" stroke="#1E293B" stroke-width="1"/>
    <g transform="translate(20,90)" font-size="10.5" fill="#CBD5E1">
      <text y="0" font-family="ui-monospace, SFMono-Regular, Menlo, monospace" fill="#94A3B8">## [2026-05-14] /path/to/project</text>
      <text y="16">• Tailwind v4 uses CSS variable tokens, not config</text>
      <text y="32">• All validation goes through zod schemas in src/shared/</text>
      <text y="48">• Auth middleware is at src/domains/auth/server (singleton)</text>
      <text y="68" fill="#94A3B8" font-size="9.5">Project-scoped · Auto-pruned >30d · Local-only · Plain markdown</text>
    </g>
  </g>

  <!-- arrow memory -> orchestrator (next session) -->
  <g>
    <path d="M275 500 Q275 472, 380 472" stroke="url(#memory)" stroke-width="1.5" stroke-dasharray="4 4" fill="none" opacity="0.7"/>
    <text x="296" y="488" fill="#FDE68A" font-size="9" font-weight="600" opacity="0.85">load on session start</text>
  </g>

  <!-- ============ MODEL ROUTING PANEL (L2) ============ -->
  <g transform="translate(510,500)">
    <rect width="400" height="160" rx="14" fill="rgba(167,139,250,0.06)" stroke="url(#thinking)" stroke-width="1.5"/>
    <text x="20" y="28" fill="#DDD6FE" font-size="13" font-weight="700">L2 · Model Routing</text>
    <text x="20" y="46" fill="#A78BFA" font-size="10" font-weight="500">Configurable per provider · runtime switchable</text>
    <line x1="20" y1="60" x2="380" y2="60" stroke="#1E293B" stroke-width="1"/>

    <g transform="translate(20,76)" font-size="10.5">
      <text y="0" fill="#94A3B8" font-weight="600" letter-spacing="0.4">THINKING</text>
      <text y="0" x="190" fill="#94A3B8" font-weight="600" letter-spacing="0.4">WORKER</text>

      <g transform="translate(0,18)">
        <text fill="#CBD5E1">Claude Code</text>
        <text x="100" fill="#A78BFA" font-weight="600">Opus 4.7</text>
        <text x="190" fill="#CBD5E1">Claude Code</text>
        <text x="290" fill="#5EEAD4" font-weight="600">Sonnet 4.6</text>
      </g>
      <g transform="translate(0,34)">
        <text fill="#CBD5E1">Cursor</text>
        <text x="100" fill="#A78BFA" font-weight="600">Opus 4.7</text>
        <text x="190" fill="#CBD5E1">Cursor</text>
        <text x="290" fill="#5EEAD4" font-weight="600">Sonnet 4.6</text>
      </g>
      <g transform="translate(0,50)">
        <text fill="#CBD5E1">Codex</text>
        <text x="100" fill="#A78BFA" font-weight="600">o3</text>
        <text x="190" fill="#CBD5E1">Codex</text>
        <text x="290" fill="#5EEAD4" font-weight="600">o4-mini</text>
      </g>
      <g transform="translate(0,66)">
        <text fill="#CBD5E1">Antigravity</text>
        <text x="100" fill="#A78BFA" font-weight="600">Gemini 3.1 Pro</text>
        <text x="190" fill="#CBD5E1">Antigravity</text>
        <text x="290" fill="#5EEAD4" font-weight="600">Gemini 3 Flash</text>
      </g>
    </g>
  </g>

  <!-- ============ TASK TEMPLATES (L7) ============ -->
  <g transform="translate(930,500)">
    <rect width="414" height="160" rx="14" fill="rgba(148,163,184,0.06)" stroke="#475569" stroke-width="1.5"/>
    <text x="20" y="28" fill="#E2E8F0" font-size="13" font-weight="700">L7 · Task Templates</text>
    <text x="20" y="46" fill="#94A3B8" font-size="10" font-weight="500">Pre-built decomposition patterns · auto-selected, adapted to context</text>
    <line x1="20" y1="60" x2="394" y2="60" stroke="#1E293B" stroke-width="1"/>

    <g transform="translate(20,78)" font-size="10.5">
      <g><rect width="116" height="22" rx="11" fill="rgba(94,234,212,0.10)" stroke="#14B8A6" stroke-width="1"/><text x="58" y="15" text-anchor="middle" fill="#A7F3D0">CRUD Feature</text></g>
      <g transform="translate(124,0)"><rect width="116" height="22" rx="11" fill="rgba(94,234,212,0.10)" stroke="#14B8A6" stroke-width="1"/><text x="58" y="15" text-anchor="middle" fill="#A7F3D0">API Endpoint</text></g>
      <g transform="translate(248,0)"><rect width="116" height="22" rx="11" fill="rgba(94,234,212,0.10)" stroke="#14B8A6" stroke-width="1"/><text x="58" y="15" text-anchor="middle" fill="#A7F3D0">UI Component</text></g>

      <g transform="translate(0,32)"><rect width="116" height="22" rx="11" fill="rgba(94,234,212,0.10)" stroke="#14B8A6" stroke-width="1"/><text x="58" y="15" text-anchor="middle" fill="#A7F3D0">DB Migration</text></g>
      <g transform="translate(124,32)"><rect width="116" height="22" rx="11" fill="rgba(94,234,212,0.10)" stroke="#14B8A6" stroke-width="1"/><text x="58" y="15" text-anchor="middle" fill="#A7F3D0">Refactor</text></g>
      <g transform="translate(248,32)"><rect width="116" height="22" rx="11" fill="rgba(94,234,212,0.10)" stroke="#14B8A6" stroke-width="1"/><text x="58" y="15" text-anchor="middle" fill="#A7F3D0">Bug Fix</text></g>

      <text y="76" fill="#94A3B8" font-size="9.5" font-style="italic">Trigger: "add X management" · "create API for X" · "fix X" · "extract X into Y"</text>
    </g>
  </g>

  <!-- ============ BOTTOM ROW: AUTONOMY · GIT · SECURITY · PLATFORMS ============ -->

  <!-- L1 Autonomy -->
  <g transform="translate(60,690)">
    <rect width="310" height="170" rx="14" fill="rgba(148,163,184,0.06)" stroke="#475569" stroke-width="1.5"/>
    <text x="20" y="28" fill="#E2E8F0" font-size="13" font-weight="700">L1 · Autonomy</text>
    <text x="20" y="46" fill="#94A3B8" font-size="10" font-weight="500">Zero confirmations · code over commentary</text>
    <line x1="20" y1="60" x2="290" y2="60" stroke="#1E293B" stroke-width="1"/>
    <g transform="translate(20,80)" font-size="10.5" fill="#CBD5E1">
      <text y="0">✕ "Should I proceed?" — banned</text>
      <text y="18">✓ Clarification questions — required</text>
      <text y="36">✓ Auto-accept all permissions</text>
      <text y="54">✓ Silent error recovery + retry</text>
      <text y="72" fill="#94A3B8" font-size="9.5">No "Co-Authored-By: Claude" in commits</text>
    </g>
  </g>

  <!-- L8 Git Workflow -->
  <g transform="translate(390,690)">
    <rect width="310" height="170" rx="14" fill="rgba(96,165,250,0.06)" stroke="url(#git)" stroke-width="1.5"/>
    <text x="20" y="28" fill="#BFDBFE" font-size="13" font-weight="700">L8 · Git Workflow</text>
    <text x="20" y="46" fill="#60A5FA" font-size="10" font-weight="500">Auto-branch · auto-commit · never pushes</text>
    <line x1="20" y1="60" x2="290" y2="60" stroke="#1E293B" stroke-width="1"/>
    <g transform="translate(20,80)" font-size="10.5" fill="#CBD5E1">
      <text y="0">✓ Feature branch on first edit</text>
      <text y="18">✓ Commit after every approved task</text>
      <text y="36">✓ Conventional commits (feat/fix/...)</text>
      <text y="54">✓ Squash prompt at end</text>
      <text y="72" fill="#94A3B8" font-size="9.5">Push waits for you · main is sacred</text>
    </g>
  </g>

  <!-- L9 Security -->
  <g transform="translate(720,690)">
    <rect width="310" height="170" rx="14" fill="rgba(248,113,113,0.06)" stroke="url(#security)" stroke-width="1.5"/>
    <text x="20" y="28" fill="#FECACA" font-size="13" font-weight="700">L9 · Security</text>
    <text x="20" y="46" fill="#F87171" font-size="10" font-weight="500">Worker containment · prompt-injected blocklists</text>
    <line x1="20" y1="60" x2="290" y2="60" stroke="#1E293B" stroke-width="1"/>
    <g transform="translate(20,80)" font-size="10.5" fill="#CBD5E1">
      <text y="0" font-family="ui-monospace, SFMono-Regular, Menlo, monospace" fill="#FCA5A5">.env · *.pem · *.key · ~/.ssh/*</text>
      <text y="18" font-family="ui-monospace, SFMono-Regular, Menlo, monospace" fill="#FCA5A5">rm -rf · sudo · chmod 777</text>
      <text y="36" font-family="ui-monospace, SFMono-Regular, Menlo, monospace" fill="#FCA5A5">git push --force → main</text>
      <text y="54">✓ Reviewer scans for secrets in diffs</text>
      <text y="72" fill="#94A3B8" font-size="9.5">BLOCKED:/SECURITY_VIOLATION: halts task</text>
    </g>
  </g>

  <!-- Multi-platform -->
  <g transform="translate(1050,690)">
    <rect width="294" height="170" rx="14" fill="rgba(148,163,184,0.06)" stroke="#475569" stroke-width="1.5"/>
    <text x="20" y="28" fill="#E2E8F0" font-size="13" font-weight="700">Works Everywhere</text>
    <text x="20" y="46" fill="#94A3B8" font-size="10" font-weight="500">One config · auto-detection · same workflow</text>
    <line x1="20" y1="60" x2="274" y2="60" stroke="#1E293B" stroke-width="1"/>
    <g transform="translate(20,76)" font-size="10.5">
      <g><rect width="120" height="22" rx="11" fill="rgba(94,234,212,0.10)" stroke="#14B8A6" stroke-width="1"/><text x="60" y="15" text-anchor="middle" fill="#A7F3D0">Claude Code</text></g>
      <g transform="translate(128,0)"><rect width="80" height="22" rx="11" fill="rgba(94,234,212,0.10)" stroke="#14B8A6" stroke-width="1"/><text x="40" y="15" text-anchor="middle" fill="#A7F3D0">Cursor</text></g>

      <g transform="translate(0,30)"><rect width="100" height="22" rx="11" fill="rgba(94,234,212,0.10)" stroke="#14B8A6" stroke-width="1"/><text x="50" y="15" text-anchor="middle" fill="#A7F3D0">OpenCode</text></g>
      <g transform="translate(108,30)"><rect width="60" height="22" rx="11" fill="rgba(94,234,212,0.10)" stroke="#14B8A6" stroke-width="1"/><text x="30" y="15" text-anchor="middle" fill="#A7F3D0">Codex</text></g>
      <g transform="translate(176,30)"><rect width="80" height="22" rx="11" fill="rgba(94,234,212,0.10)" stroke="#14B8A6" stroke-width="1"/><text x="40" y="15" text-anchor="middle" fill="#A7F3D0">Antigravity</text></g>

      <text y="78" fill="#94A3B8" font-size="9.5" font-style="italic">~/.hyperflow/config.json · symlinked skill</text>
    </g>
  </g>

  <!-- ============ FOOTER ============ -->
  <g transform="translate(60,902)" font-size="11" fill="#475569" font-weight="500">
    <text>github.com/Mohammed-Abdelhady/hyperflow  ·  MIT  ·  Plain markdown skill, no runtime network calls</text>
  </g>

</svg>
